<?xml version="1.0" standalone="no"?>

<!DOCTYPE svg PUBLIC "-//W3C//DTD SVG 1.1//EN"
"http://www.w3.org/Graphics/SVG/1.1/DTD/svg11.dtd">
<svg
    width="33mm"
    height="40.6mm"
    viewBox="0 0 3300 4060"
    id=""
    version="1.1"
    xmlns="http://www.w3.org/2000/svg"
    xmlns:xlink="http://www.w3.org/1999/xlink">

  <g id="breadboard">
    <!-- The PCB -->
    <rect
        x="0"
        y="0"
        fill="#165c7a"
        rx="300"
        ry="400"
        width="3300"
        height="4060"
    />
    <!-- The header pins -->
    <g transform="translate(1277 177)">
      <circle fill="#b9b9b9" cx="0" cy="0" r="100" />
      <circle fill="#b9b9b9" cx="254" cy="0" r="100" />
      <circle fill="#b9b9b9" cx="508" cy="0" r="100" />
      <circle fill="#b9b9b9" cx="762" cy="0" r="100" />
    </g>
    <!-- The actual header connectors -->
    <g transform="translate(1277 177)">
      <circle id="connector0pin" fill="#f1d083" cx="0" cy="0" r="50" />
      <circle id="connector1pin" fill="#f1d083" cx="254" cy="0" r="50" />
      <circle id="connector2pin" fill="#f1d083" cx="508" cy="0" r="50" />
      <circle id="connector3pin" fill="#f1d083" cx="762" cy="0" r="50" />
    </g>
    <!-- The LED display itself -->
    <g transform="translate(50 400)">
      <rect
          x="0"
          y="0"
          fill="#050505"
          width="3200"
          height="3200"
      />
      <g transform="translate(50 50)">
        <g transform="translate(0 0)">
          <rect
              fill="#4d4d4d"
              width="300"
              height="300"
              x="0"
              y="0"
          />
          <rect
              fill="#4d4d4d"
              width="300"
              height="300"
              x="400"
              y="0"
          />
          <rect
              fill="#4d4d4d"
              width="300"
              height="300"
              x="800"
              y="0"
          />
          <rect
              fill="#4d4d4d"
              width="300"
              height="300"
              x="1200"
              y="0"
          />
          <rect
              fill="#4d4d4d"
              width="300"
              height="300"
              x="1600"
              y="0"
          />
          <rect
              fill="#4d4d4d"
              width="300"
              height="300"
              x="2000"
              y="0"
          />
          <rect
              fill="#4d4d4d"
              width="300"
              height="300"
              x="2400"
              y="0"
          />
          <rect
              fill="#4d4d4d"
              width="300"
              height="300"
              x="2800"
              y="0"
          />
        </g>
        <g transform="translate(0 400)">
          <rect
              fill="#4d4d4d"
              width="300"
              height="300"
              x="0"
              y="0"
          />
          <rect
              fill="#4d4d4d"
              width="300"
              height="300"
              x="400"
              y="0"
          />
          <rect
              fill="#4d4d4d"
              width="300"
              height="300"
              x="800"
              y="0"
          />
          <rect
              fill="#4d4d4d"
              width="300"
              height="300"
              x="1200"
              y="0"
          />
          <rect
              fill="#4d4d4d"
              width="300"
              height="300"
              x="1600"
              y="0"
          />
          <rect
              fill="#4d4d4d"
              width="300"
              height="300"
              x="2000"
              y="0"
          />
          <rect
              fill="#4d4d4d"
              width="300"
              height="300"
              x="2400"
              y="0"
          />
          <rect
              fill="#4d4d4d"
              width="300"
              height="300"
              x="2800"
              y="0"
          />
        </g>
        <g transform="translate(0 800)">
          <rect
              fill="#4d4d4d"
              width="300"
              height="300"
              x="0"
              y="0"
          />
          <rect
              fill="#4d4d4d"
              width="300"
              height="300"
              x="400"
              y="0"
          />
          <rect
              fill="#4d4d4d"
              width="300"
              height="300"
              x="800"
              y="0"
          />
          <rect
              fill="#4d4d4d"
              width="300"
              height="300"
              x="1200"
              y="0"
          />
          <rect
              fill="#4d4d4d"
              width="300"
              height="300"
              x="1600"
              y="0"
          />
          <rect
              fill="#4d4d4d"
              width="300"
              height="300"
              x="2000"
              y="0"
          />
          <rect
              fill="#4d4d4d"
              width="300"
              height="300"
              x="2400"
              y="0"
          />
          <rect
              fill="#4d4d4d"
              width="300"
              height="300"
              x="2800"
              y="0"
          />
        </g>
        <g transform="translate(0 1200)">
          <rect
              fill="#4d4d4d"
              width="300"
              height="300"
              x="0"
              y="0"
          />
          <rect
              fill="#4d4d4d"
              width="300"
              height="300"
              x="400"
              y="0"
          />
          <rect
              fill="#4d4d4d"
              width="300"
              height="300"
              x="800"
              y="0"
          />
          <rect
              fill="#4d4d4d"
              width="300"
              height="300"
              x="1200"
              y="0"
          />
          <rect
              fill="#4d4d4d"
              width="300"
              height="300"
              x="1600"
              y="0"
          />
          <rect
              fill="#4d4d4d"
              width="300"
              height="300"
              x="2000"
              y="0"
          />
          <rect
              fill="#4d4d4d"
              width="300"
              height="300"
              x="2400"
              y="0"
          />
          <rect
              fill="#4d4d4d"
              width="300"
              height="300"
              x="2800"
              y="0"
          />
        </g>
        <g transform="translate(0 1600)">
          <rect
              fill="#4d4d4d"
              width="300"
              height="300"
              x="0"
              y="0"
          />
          <rect
              fill="#4d4d4d"
              width="300"
              height="300"
              x="400"
              y="0"
          />
          <rect
              fill="#4d4d4d"
              width="300"
              height="300"
              x="800"
              y="0"
          />
          <rect
              fill="#4d4d4d"
              width="300"
              height="300"
              x="1200"
              y="0"
          />
          <rect
              fill="#4d4d4d"
              width="300"
              height="300"
              x="1600"
              y="0"
          />
          <rect
              fill="#4d4d4d"
              width="300"
              height="300"
              x="2000"
              y="0"
          />
          <rect
              fill="#4d4d4d"
              width="300"
              height="300"
              x="2400"
              y="0"
          />
          <rect
              fill="#4d4d4d"
              width="300"
              height="300"
              x="2800"
              y="0"
          />
        </g>
        <g transform="translate(0 2000)">
          <rect
              fill="#4d4d4d"
              width="300"
              height="300"
              x="0"
              y="0"
          />
          <rect
              fill="#4d4d4d"
              width="300"
              height="300"
              x="400"
              y="0"
          />
          <rect
              fill="#4d4d4d"
              width="300"
              height="300"
              x="800"
              y="0"
          />
          <rect
              fill="#4d4d4d"
              width="300"
              height="300"
              x="1200"
              y="0"
          />
          <rect
              fill="#4d4d4d"
              width="300"
              height="300"
              x="1600"
              y="0"
          />
          <rect
              fill="#4d4d4d"
              width="300"
              height="300"
              x="2000"
              y="0"
          />
          <rect
              fill="#4d4d4d"
              width="300"
              height="300"
              x="2400"
              y="0"
          />
          <rect
              fill="#4d4d4d"
              width="300"
              height="300"
              x="2800"
              y="0"
          />
        </g>
        <g transform="translate(0 2400)">
          <rect
              fill="#4d4d4d"
              width="300"
              height="300"
              x="0"
              y="0"
          />
          <rect
              fill="#4d4d4d"
              width="300"
              height="300"
              x="400"
              y="0"
          />
          <rect
              fill="#4d4d4d"
              width="300"
              height="300"
              x="800"
              y="0"
          />
          <rect
              fill="#4d4d4d"
              width="300"
              height="300"
              x="1200"
              y="0"
          />
          <rect
              fill="#4d4d4d"
              width="300"
              height="300"
              x="1600"
              y="0"
          />
          <rect
              fill="#4d4d4d"
              width="300"
              height="300"
              x="2000"
              y="0"
          />
          <rect
              fill="#4d4d4d"
              width="300"
              height="300"
              x="2400"
              y="0"
          />
          <rect
              fill="#4d4d4d"
              width="300"
              height="300"
              x="2800"
              y="0"
          />
        </g>
        <g transform="translate(0 2800)">
          <rect
              fill="#4d4d4d"
              width="300"
              height="300"
              x="0"
              y="0"
          />
          <rect
              fill="#4d4d4d"
              width="300"
              height="300"
              x="400"
              y="0"
          />
          <rect
              fill="#4d4d4d"
              width="300"
              height="300"
              x="800"
              y="0"
          />
          <rect
              fill="#4d4d4d"
              width="300"
              height="300"
              x="1200"
              y="0"
          />
          <rect
              fill="#4d4d4d"
              width="300"
              height="300"
              x="1600"
              y="0"
          />
          <rect
              fill="#4d4d4d"
              width="300"
              height="300"
              x="2000"
              y="0"
          />
          <rect
              fill="#4d4d4d"
              width="300"
              height="300"
              x="2400"
              y="0"
          />
          <rect
              fill="#4d4d4d"
              width="300"
              height="300"
              x="2800"
              y="0"
          />
        </g>
      </g>
    </g>
  </g>

</svg>
